<mxfile host="app.diagrams.net" agent="Mozilla/5.0 (Windows NT 10.0; Win64; x64) AppleWebKit/537.36 (KHTML, like Gecko) Chrome/130.0.0.0 Safari/537.36" version="24.8.2">
  <diagram id="C5RBs43oDa-KdzZeNtuy" name="Page-1">
    <mxGraphModel dx="2181" dy="1954" grid="1" gridSize="10" guides="1" tooltips="1" connect="1" arrows="1" fold="1" page="1" pageScale="1" pageWidth="827" pageHeight="1169" math="0" shadow="0">
      <root>
        <mxCell id="WIyWlLk6GJQsqaUBKTNV-0" />
        <mxCell id="WIyWlLk6GJQsqaUBKTNV-1" parent="WIyWlLk6GJQsqaUBKTNV-0" />
        <mxCell id="ATxBXpaf24UVZL9DsClH-126" style="edgeStyle=none;curved=1;rounded=0;orthogonalLoop=1;jettySize=auto;html=1;entryX=0;entryY=0;entryDx=0;entryDy=0;fontSize=12;startSize=8;endSize=8;" edge="1" parent="WIyWlLk6GJQsqaUBKTNV-1" source="zkfFHV4jXpPFQw0GAbJ--0" target="ATxBXpaf24UVZL9DsClH-119">
          <mxGeometry relative="1" as="geometry">
            <Array as="points">
              <mxPoint x="550" y="-50" />
            </Array>
          </mxGeometry>
        </mxCell>
        <mxCell id="ATxBXpaf24UVZL9DsClH-127" value="has" style="edgeLabel;html=1;align=center;verticalAlign=middle;resizable=0;points=[];fontSize=12;" vertex="1" connectable="0" parent="ATxBXpaf24UVZL9DsClH-126">
          <mxGeometry x="-0.6292" y="-5" relative="1" as="geometry">
            <mxPoint x="96" y="-57" as="offset" />
          </mxGeometry>
        </mxCell>
        <mxCell id="ATxBXpaf24UVZL9DsClH-128" value="1" style="edgeLabel;html=1;align=center;verticalAlign=middle;resizable=0;points=[];fontSize=12;" vertex="1" connectable="0" parent="ATxBXpaf24UVZL9DsClH-126">
          <mxGeometry x="-0.8941" y="-5" relative="1" as="geometry">
            <mxPoint x="-22" as="offset" />
          </mxGeometry>
        </mxCell>
        <mxCell id="ATxBXpaf24UVZL9DsClH-129" value="n" style="edgeLabel;html=1;align=center;verticalAlign=middle;resizable=0;points=[];fontSize=12;" vertex="1" connectable="0" parent="ATxBXpaf24UVZL9DsClH-126">
          <mxGeometry x="0.906" relative="1" as="geometry">
            <mxPoint x="2" y="-11" as="offset" />
          </mxGeometry>
        </mxCell>
        <mxCell id="ATxBXpaf24UVZL9DsClH-136" style="edgeStyle=none;curved=1;rounded=0;orthogonalLoop=1;jettySize=auto;html=1;fontSize=12;startSize=8;endSize=8;" edge="1" parent="WIyWlLk6GJQsqaUBKTNV-1" source="zkfFHV4jXpPFQw0GAbJ--0">
          <mxGeometry relative="1" as="geometry">
            <mxPoint x="300" y="-130" as="targetPoint" />
          </mxGeometry>
        </mxCell>
        <mxCell id="ATxBXpaf24UVZL9DsClH-137" value="n" style="edgeLabel;html=1;align=center;verticalAlign=middle;resizable=0;points=[];fontSize=12;" vertex="1" connectable="0" parent="ATxBXpaf24UVZL9DsClH-136">
          <mxGeometry x="-0.5714" y="-2" relative="1" as="geometry">
            <mxPoint x="8" y="-137" as="offset" />
          </mxGeometry>
        </mxCell>
        <mxCell id="ATxBXpaf24UVZL9DsClH-138" value="1" style="edgeLabel;html=1;align=center;verticalAlign=middle;resizable=0;points=[];fontSize=12;" vertex="1" connectable="0" parent="ATxBXpaf24UVZL9DsClH-136">
          <mxGeometry x="-0.5714" y="-2" relative="1" as="geometry">
            <mxPoint x="8" y="31" as="offset" />
          </mxGeometry>
        </mxCell>
        <mxCell id="ATxBXpaf24UVZL9DsClH-140" value="1" style="edgeLabel;html=1;align=center;verticalAlign=middle;resizable=0;points=[];fontSize=12;" vertex="1" connectable="0" parent="ATxBXpaf24UVZL9DsClH-136">
          <mxGeometry x="-0.5714" y="-2" relative="1" as="geometry">
            <mxPoint x="218" y="31" as="offset" />
          </mxGeometry>
        </mxCell>
        <mxCell id="ATxBXpaf24UVZL9DsClH-141" value="1" style="edgeLabel;html=1;align=center;verticalAlign=middle;resizable=0;points=[];fontSize=12;" vertex="1" connectable="0" parent="ATxBXpaf24UVZL9DsClH-136">
          <mxGeometry x="-0.5714" y="-2" relative="1" as="geometry">
            <mxPoint x="112" y="-139" as="offset" />
          </mxGeometry>
        </mxCell>
        <mxCell id="ATxBXpaf24UVZL9DsClH-149" style="edgeStyle=none;curved=1;rounded=0;orthogonalLoop=1;jettySize=auto;html=1;entryX=1;entryY=0.5;entryDx=0;entryDy=0;fontSize=12;startSize=8;endSize=8;" edge="1" parent="WIyWlLk6GJQsqaUBKTNV-1" source="zkfFHV4jXpPFQw0GAbJ--0" target="ATxBXpaf24UVZL9DsClH-146">
          <mxGeometry relative="1" as="geometry">
            <Array as="points">
              <mxPoint x="250" y="270" />
            </Array>
          </mxGeometry>
        </mxCell>
        <mxCell id="ATxBXpaf24UVZL9DsClH-150" value="1,n" style="edgeLabel;html=1;align=center;verticalAlign=middle;resizable=0;points=[];fontSize=12;" vertex="1" connectable="0" parent="ATxBXpaf24UVZL9DsClH-149">
          <mxGeometry x="-0.8205" y="2" relative="1" as="geometry">
            <mxPoint x="9" as="offset" />
          </mxGeometry>
        </mxCell>
        <mxCell id="ATxBXpaf24UVZL9DsClH-151" value="1,n" style="edgeLabel;html=1;align=center;verticalAlign=middle;resizable=0;points=[];fontSize=12;" vertex="1" connectable="0" parent="ATxBXpaf24UVZL9DsClH-149">
          <mxGeometry x="-0.8205" y="2" relative="1" as="geometry">
            <mxPoint x="-101" y="122" as="offset" />
          </mxGeometry>
        </mxCell>
        <mxCell id="zkfFHV4jXpPFQw0GAbJ--0" value="University  " style="swimlane;fontStyle=2;align=center;verticalAlign=top;childLayout=stackLayout;horizontal=1;startSize=26;horizontalStack=0;resizeParent=1;resizeLast=0;collapsible=1;marginBottom=0;rounded=0;shadow=0;strokeWidth=1;" parent="WIyWlLk6GJQsqaUBKTNV-1" vertex="1">
          <mxGeometry x="220" y="60" width="160" height="100" as="geometry">
            <mxRectangle x="230" y="140" width="160" height="26" as="alternateBounds" />
          </mxGeometry>
        </mxCell>
        <mxCell id="zkfFHV4jXpPFQw0GAbJ--1" value="[Attributes]" style="text;align=left;verticalAlign=top;spacingLeft=4;spacingRight=4;overflow=hidden;rotatable=0;points=[[0,0.5],[1,0.5]];portConstraint=eastwest;" parent="zkfFHV4jXpPFQw0GAbJ--0" vertex="1">
          <mxGeometry y="26" width="160" height="26" as="geometry" />
        </mxCell>
        <mxCell id="zkfFHV4jXpPFQw0GAbJ--4" value="" style="line;html=1;strokeWidth=1;align=left;verticalAlign=middle;spacingTop=-1;spacingLeft=3;spacingRight=3;rotatable=0;labelPosition=right;points=[];portConstraint=eastwest;" parent="zkfFHV4jXpPFQw0GAbJ--0" vertex="1">
          <mxGeometry y="52" width="160" height="8" as="geometry" />
        </mxCell>
        <mxCell id="ATxBXpaf24UVZL9DsClH-14" style="edgeStyle=none;curved=1;rounded=0;orthogonalLoop=1;jettySize=auto;html=1;entryX=0;entryY=0.5;entryDx=0;entryDy=0;fontSize=12;startSize=8;endSize=8;" edge="1" parent="WIyWlLk6GJQsqaUBKTNV-1" source="zkfFHV4jXpPFQw0GAbJ--6" target="ATxBXpaf24UVZL9DsClH-2">
          <mxGeometry relative="1" as="geometry">
            <Array as="points">
              <mxPoint x="330" y="280" />
            </Array>
          </mxGeometry>
        </mxCell>
        <mxCell id="ATxBXpaf24UVZL9DsClH-34" style="edgeStyle=none;curved=1;rounded=0;orthogonalLoop=1;jettySize=auto;html=1;entryX=0;entryY=0;entryDx=0;entryDy=0;fontSize=12;startSize=8;endSize=8;" edge="1" parent="WIyWlLk6GJQsqaUBKTNV-1" source="zkfFHV4jXpPFQw0GAbJ--6" target="ATxBXpaf24UVZL9DsClH-27">
          <mxGeometry relative="1" as="geometry">
            <Array as="points">
              <mxPoint x="360" y="610" />
            </Array>
          </mxGeometry>
        </mxCell>
        <mxCell id="ATxBXpaf24UVZL9DsClH-97" style="edgeStyle=none;curved=1;rounded=0;orthogonalLoop=1;jettySize=auto;html=1;entryX=0.5;entryY=1;entryDx=0;entryDy=0;fontSize=12;startSize=8;endSize=8;" edge="1" parent="WIyWlLk6GJQsqaUBKTNV-1" source="zkfFHV4jXpPFQw0GAbJ--6" target="ATxBXpaf24UVZL9DsClH-86">
          <mxGeometry relative="1" as="geometry">
            <Array as="points">
              <mxPoint x="330" y="1010" />
              <mxPoint x="720" y="1100" />
            </Array>
          </mxGeometry>
        </mxCell>
        <mxCell id="zkfFHV4jXpPFQw0GAbJ--6" value="Graduate Student" style="swimlane;fontStyle=0;align=center;verticalAlign=top;childLayout=stackLayout;horizontal=1;startSize=26;horizontalStack=0;resizeParent=1;resizeLast=0;collapsible=1;marginBottom=0;rounded=0;shadow=0;strokeWidth=1;" parent="WIyWlLk6GJQsqaUBKTNV-1" vertex="1">
          <mxGeometry x="260" y="450" width="160" height="100" as="geometry">
            <mxRectangle x="130" y="380" width="160" height="26" as="alternateBounds" />
          </mxGeometry>
        </mxCell>
        <mxCell id="zkfFHV4jXpPFQw0GAbJ--7" value="[Attributes]" style="text;align=left;verticalAlign=top;spacingLeft=4;spacingRight=4;overflow=hidden;rotatable=0;points=[[0,0.5],[1,0.5]];portConstraint=eastwest;" parent="zkfFHV4jXpPFQw0GAbJ--6" vertex="1">
          <mxGeometry y="26" width="160" height="26" as="geometry" />
        </mxCell>
        <mxCell id="zkfFHV4jXpPFQw0GAbJ--9" value="" style="line;html=1;strokeWidth=1;align=left;verticalAlign=middle;spacingTop=-1;spacingLeft=3;spacingRight=3;rotatable=0;labelPosition=right;points=[];portConstraint=eastwest;" parent="zkfFHV4jXpPFQw0GAbJ--6" vertex="1">
          <mxGeometry y="52" width="160" height="8" as="geometry" />
        </mxCell>
        <mxCell id="ATxBXpaf24UVZL9DsClH-30" style="edgeStyle=none;curved=1;rounded=0;orthogonalLoop=1;jettySize=auto;html=1;entryX=1;entryY=0;entryDx=0;entryDy=0;fontSize=12;startSize=8;endSize=8;" edge="1" parent="WIyWlLk6GJQsqaUBKTNV-1" source="zkfFHV4jXpPFQw0GAbJ--13" target="ATxBXpaf24UVZL9DsClH-27">
          <mxGeometry relative="1" as="geometry">
            <Array as="points">
              <mxPoint x="600" y="600" />
            </Array>
          </mxGeometry>
        </mxCell>
        <mxCell id="ATxBXpaf24UVZL9DsClH-111" style="edgeStyle=none;curved=1;rounded=0;orthogonalLoop=1;jettySize=auto;html=1;entryX=0.25;entryY=1;entryDx=0;entryDy=0;fontSize=12;startSize=8;endSize=8;" edge="1" parent="WIyWlLk6GJQsqaUBKTNV-1" source="zkfFHV4jXpPFQw0GAbJ--13" target="ATxBXpaf24UVZL9DsClH-108">
          <mxGeometry relative="1" as="geometry">
            <Array as="points">
              <mxPoint x="750" y="690" />
              <mxPoint x="1080" y="690" />
            </Array>
          </mxGeometry>
        </mxCell>
        <mxCell id="zkfFHV4jXpPFQw0GAbJ--13" value="Professor" style="swimlane;fontStyle=0;align=center;verticalAlign=top;childLayout=stackLayout;horizontal=1;startSize=26;horizontalStack=0;resizeParent=1;resizeLast=0;collapsible=1;marginBottom=0;rounded=0;shadow=0;strokeWidth=1;" parent="WIyWlLk6GJQsqaUBKTNV-1" vertex="1">
          <mxGeometry x="520" y="450" width="160" height="100" as="geometry">
            <mxRectangle x="340" y="380" width="170" height="26" as="alternateBounds" />
          </mxGeometry>
        </mxCell>
        <mxCell id="zkfFHV4jXpPFQw0GAbJ--14" value="[Attributes]" style="text;align=left;verticalAlign=top;spacingLeft=4;spacingRight=4;overflow=hidden;rotatable=0;points=[[0,0.5],[1,0.5]];portConstraint=eastwest;" parent="zkfFHV4jXpPFQw0GAbJ--13" vertex="1">
          <mxGeometry y="26" width="160" height="26" as="geometry" />
        </mxCell>
        <mxCell id="zkfFHV4jXpPFQw0GAbJ--15" value="" style="line;html=1;strokeWidth=1;align=left;verticalAlign=middle;spacingTop=-1;spacingLeft=3;spacingRight=3;rotatable=0;labelPosition=right;points=[];portConstraint=eastwest;" parent="zkfFHV4jXpPFQw0GAbJ--13" vertex="1">
          <mxGeometry y="52" width="160" height="8" as="geometry" />
        </mxCell>
        <mxCell id="ATxBXpaf24UVZL9DsClH-5" style="edgeStyle=none;curved=1;rounded=0;orthogonalLoop=1;jettySize=auto;html=1;entryX=0.5;entryY=0;entryDx=0;entryDy=0;fontSize=12;startSize=8;endSize=8;" edge="1" parent="WIyWlLk6GJQsqaUBKTNV-1" source="zkfFHV4jXpPFQw0GAbJ--17" target="ATxBXpaf24UVZL9DsClH-2">
          <mxGeometry relative="1" as="geometry" />
        </mxCell>
        <mxCell id="ATxBXpaf24UVZL9DsClH-69" style="edgeStyle=none;curved=1;rounded=0;orthogonalLoop=1;jettySize=auto;html=1;entryX=0;entryY=0;entryDx=0;entryDy=0;fontSize=12;startSize=8;endSize=8;" edge="1" parent="WIyWlLk6GJQsqaUBKTNV-1" source="zkfFHV4jXpPFQw0GAbJ--17" target="ATxBXpaf24UVZL9DsClH-66">
          <mxGeometry relative="1" as="geometry">
            <Array as="points">
              <mxPoint x="760" y="190" />
            </Array>
          </mxGeometry>
        </mxCell>
        <mxCell id="ATxBXpaf24UVZL9DsClH-139" style="edgeStyle=none;curved=1;rounded=0;orthogonalLoop=1;jettySize=auto;html=1;entryX=1;entryY=1;entryDx=0;entryDy=0;fontSize=12;startSize=8;endSize=8;" edge="1" parent="WIyWlLk6GJQsqaUBKTNV-1" source="zkfFHV4jXpPFQw0GAbJ--17" target="ATxBXpaf24UVZL9DsClH-133">
          <mxGeometry relative="1" as="geometry">
            <Array as="points">
              <mxPoint x="430" />
            </Array>
          </mxGeometry>
        </mxCell>
        <mxCell id="zkfFHV4jXpPFQw0GAbJ--17" value="Department" style="swimlane;fontStyle=0;align=center;verticalAlign=top;childLayout=stackLayout;horizontal=1;startSize=26;horizontalStack=0;resizeParent=1;resizeLast=0;collapsible=1;marginBottom=0;rounded=0;shadow=0;strokeWidth=1;" parent="WIyWlLk6GJQsqaUBKTNV-1" vertex="1">
          <mxGeometry x="508" y="60" width="160" height="100" as="geometry">
            <mxRectangle x="550" y="140" width="160" height="26" as="alternateBounds" />
          </mxGeometry>
        </mxCell>
        <mxCell id="zkfFHV4jXpPFQw0GAbJ--18" value="[Attributes]" style="text;align=left;verticalAlign=top;spacingLeft=4;spacingRight=4;overflow=hidden;rotatable=0;points=[[0,0.5],[1,0.5]];portConstraint=eastwest;" parent="zkfFHV4jXpPFQw0GAbJ--17" vertex="1">
          <mxGeometry y="26" width="160" height="26" as="geometry" />
        </mxCell>
        <mxCell id="zkfFHV4jXpPFQw0GAbJ--23" value="" style="line;html=1;strokeWidth=1;align=left;verticalAlign=middle;spacingTop=-1;spacingLeft=3;spacingRight=3;rotatable=0;labelPosition=right;points=[];portConstraint=eastwest;" parent="zkfFHV4jXpPFQw0GAbJ--17" vertex="1">
          <mxGeometry y="52" width="160" height="8" as="geometry" />
        </mxCell>
        <mxCell id="zkfFHV4jXpPFQw0GAbJ--26" value="" style="endArrow=open;shadow=0;strokeWidth=1;rounded=0;curved=0;endFill=1;edgeStyle=elbowEdgeStyle;elbow=vertical;" parent="WIyWlLk6GJQsqaUBKTNV-1" source="zkfFHV4jXpPFQw0GAbJ--0" target="zkfFHV4jXpPFQw0GAbJ--17" edge="1">
          <mxGeometry x="0.5" y="41" relative="1" as="geometry">
            <mxPoint x="380" y="192" as="sourcePoint" />
            <mxPoint x="540" y="192" as="targetPoint" />
            <mxPoint x="-40" y="32" as="offset" />
          </mxGeometry>
        </mxCell>
        <mxCell id="zkfFHV4jXpPFQw0GAbJ--27" value="1" style="resizable=0;align=left;verticalAlign=bottom;labelBackgroundColor=none;fontSize=12;" parent="zkfFHV4jXpPFQw0GAbJ--26" connectable="0" vertex="1">
          <mxGeometry x="-1" relative="1" as="geometry">
            <mxPoint y="1" as="offset" />
          </mxGeometry>
        </mxCell>
        <mxCell id="zkfFHV4jXpPFQw0GAbJ--28" value="n" style="resizable=0;align=right;verticalAlign=bottom;labelBackgroundColor=none;fontSize=12;" parent="zkfFHV4jXpPFQw0GAbJ--26" connectable="0" vertex="1">
          <mxGeometry x="1" relative="1" as="geometry">
            <mxPoint x="-10" y="1" as="offset" />
          </mxGeometry>
        </mxCell>
        <mxCell id="zkfFHV4jXpPFQw0GAbJ--29" value="Contains" style="text;html=1;resizable=0;points=[];;align=center;verticalAlign=middle;labelBackgroundColor=none;rounded=0;shadow=0;strokeWidth=1;fontSize=12;" parent="zkfFHV4jXpPFQw0GAbJ--26" vertex="1" connectable="0">
          <mxGeometry x="0.5" y="49" relative="1" as="geometry">
            <mxPoint x="-38" y="40" as="offset" />
          </mxGeometry>
        </mxCell>
        <mxCell id="ATxBXpaf24UVZL9DsClH-10" value="n,1" style="resizable=0;align=right;verticalAlign=bottom;labelBackgroundColor=none;fontSize=12;" connectable="0" vertex="1" parent="zkfFHV4jXpPFQw0GAbJ--26">
          <mxGeometry x="1" relative="1" as="geometry">
            <mxPoint x="77" y="258" as="offset" />
          </mxGeometry>
        </mxCell>
        <mxCell id="ATxBXpaf24UVZL9DsClH-11" value="n,1" style="resizable=0;align=right;verticalAlign=bottom;labelBackgroundColor=none;fontSize=12;" connectable="0" vertex="1" parent="zkfFHV4jXpPFQw0GAbJ--26">
          <mxGeometry x="1" relative="1" as="geometry">
            <mxPoint x="78" y="331" as="offset" />
          </mxGeometry>
        </mxCell>
        <mxCell id="ATxBXpaf24UVZL9DsClH-12" value="1" style="resizable=0;align=left;verticalAlign=bottom;labelBackgroundColor=none;fontSize=12;" connectable="0" vertex="1" parent="zkfFHV4jXpPFQw0GAbJ--26">
          <mxGeometry x="-1" relative="1" as="geometry">
            <mxPoint x="196" y="69" as="offset" />
          </mxGeometry>
        </mxCell>
        <mxCell id="ATxBXpaf24UVZL9DsClH-13" value="n" style="resizable=0;align=right;verticalAlign=bottom;labelBackgroundColor=none;fontSize=12;" connectable="0" vertex="1" parent="zkfFHV4jXpPFQw0GAbJ--26">
          <mxGeometry x="1" relative="1" as="geometry">
            <mxPoint x="77" y="123" as="offset" />
          </mxGeometry>
        </mxCell>
        <mxCell id="ATxBXpaf24UVZL9DsClH-32" value="1" style="resizable=0;align=right;verticalAlign=bottom;labelBackgroundColor=none;fontSize=12;" connectable="0" vertex="1" parent="zkfFHV4jXpPFQw0GAbJ--26">
          <mxGeometry x="1" relative="1" as="geometry">
            <mxPoint x="92" y="460" as="offset" />
          </mxGeometry>
        </mxCell>
        <mxCell id="ATxBXpaf24UVZL9DsClH-33" value="n,1" style="resizable=0;align=right;verticalAlign=bottom;labelBackgroundColor=none;fontSize=12;" connectable="0" vertex="1" parent="zkfFHV4jXpPFQw0GAbJ--26">
          <mxGeometry x="1" relative="1" as="geometry">
            <mxPoint x="64" y="525" as="offset" />
          </mxGeometry>
        </mxCell>
        <mxCell id="ATxBXpaf24UVZL9DsClH-35" value="n,1" style="resizable=0;align=right;verticalAlign=bottom;labelBackgroundColor=none;fontSize=12;" connectable="0" vertex="1" parent="zkfFHV4jXpPFQw0GAbJ--26">
          <mxGeometry x="1" relative="1" as="geometry">
            <mxPoint x="-136" y="460" as="offset" />
          </mxGeometry>
        </mxCell>
        <mxCell id="ATxBXpaf24UVZL9DsClH-36" value="n,1" style="resizable=0;align=right;verticalAlign=bottom;labelBackgroundColor=none;fontSize=12;" connectable="0" vertex="1" parent="zkfFHV4jXpPFQw0GAbJ--26">
          <mxGeometry x="1" relative="1" as="geometry">
            <mxPoint x="-83" y="520" as="offset" />
          </mxGeometry>
        </mxCell>
        <mxCell id="ATxBXpaf24UVZL9DsClH-42" value="n,1" style="resizable=0;align=right;verticalAlign=bottom;labelBackgroundColor=none;fontSize=12;" connectable="0" vertex="1" parent="zkfFHV4jXpPFQw0GAbJ--26">
          <mxGeometry x="1" relative="1" as="geometry">
            <mxPoint x="-253" y="418" as="offset" />
          </mxGeometry>
        </mxCell>
        <mxCell id="ATxBXpaf24UVZL9DsClH-45" value="" style="resizable=0;align=right;verticalAlign=bottom;labelBackgroundColor=none;fontSize=12;" connectable="0" vertex="1" parent="zkfFHV4jXpPFQw0GAbJ--26">
          <mxGeometry x="1" relative="1" as="geometry">
            <mxPoint x="-315" y="525" as="offset" />
          </mxGeometry>
        </mxCell>
        <mxCell id="ATxBXpaf24UVZL9DsClH-47" value="n,0,1" style="resizable=0;align=right;verticalAlign=bottom;labelBackgroundColor=none;fontSize=12;" connectable="0" vertex="1" parent="zkfFHV4jXpPFQw0GAbJ--26">
          <mxGeometry x="1" relative="1" as="geometry">
            <mxPoint x="-243" y="530" as="offset" />
          </mxGeometry>
        </mxCell>
        <mxCell id="ATxBXpaf24UVZL9DsClH-50" value="n,1 " style="resizable=0;align=right;verticalAlign=bottom;labelBackgroundColor=none;fontSize=12;" connectable="0" vertex="1" parent="zkfFHV4jXpPFQw0GAbJ--26">
          <mxGeometry x="1" relative="1" as="geometry">
            <mxPoint x="197" y="456" as="offset" />
          </mxGeometry>
        </mxCell>
        <mxCell id="ATxBXpaf24UVZL9DsClH-51" value="n,1" style="resizable=0;align=right;verticalAlign=bottom;labelBackgroundColor=none;fontSize=12;" connectable="0" vertex="1" parent="zkfFHV4jXpPFQw0GAbJ--26">
          <mxGeometry x="1" relative="1" as="geometry">
            <mxPoint x="95" y="695" as="offset" />
          </mxGeometry>
        </mxCell>
        <mxCell id="ATxBXpaf24UVZL9DsClH-52" value="n,1" style="resizable=0;align=right;verticalAlign=bottom;labelBackgroundColor=none;fontSize=12;" connectable="0" vertex="1" parent="zkfFHV4jXpPFQw0GAbJ--26">
          <mxGeometry x="1" relative="1" as="geometry">
            <mxPoint x="-288" y="390" as="offset" />
          </mxGeometry>
        </mxCell>
        <mxCell id="ATxBXpaf24UVZL9DsClH-53" value="n,1" style="resizable=0;align=right;verticalAlign=bottom;labelBackgroundColor=none;fontSize=12;" connectable="0" vertex="1" parent="zkfFHV4jXpPFQw0GAbJ--26">
          <mxGeometry x="1" relative="1" as="geometry">
            <mxPoint x="-52" y="690" as="offset" />
          </mxGeometry>
        </mxCell>
        <mxCell id="ATxBXpaf24UVZL9DsClH-99" value="n,1" style="resizable=0;align=right;verticalAlign=bottom;labelBackgroundColor=none;fontSize=12;" connectable="0" vertex="1" parent="zkfFHV4jXpPFQw0GAbJ--26">
          <mxGeometry x="1" relative="1" as="geometry">
            <mxPoint x="-171" y="459" as="offset" />
          </mxGeometry>
        </mxCell>
        <mxCell id="ATxBXpaf24UVZL9DsClH-100" value="1" style="resizable=0;align=right;verticalAlign=bottom;labelBackgroundColor=none;fontSize=12;" connectable="0" vertex="1" parent="zkfFHV4jXpPFQw0GAbJ--26">
          <mxGeometry x="1" relative="1" as="geometry">
            <mxPoint x="383" y="749" as="offset" />
          </mxGeometry>
        </mxCell>
        <mxCell id="ATxBXpaf24UVZL9DsClH-112" value="1" style="resizable=0;align=right;verticalAlign=bottom;labelBackgroundColor=none;fontSize=12;" connectable="0" vertex="1" parent="zkfFHV4jXpPFQw0GAbJ--26">
          <mxGeometry x="1" relative="1" as="geometry">
            <mxPoint x="134" y="456" as="offset" />
          </mxGeometry>
        </mxCell>
        <mxCell id="ATxBXpaf24UVZL9DsClH-113" value="1,n" style="resizable=0;align=right;verticalAlign=bottom;labelBackgroundColor=none;fontSize=12;" connectable="0" vertex="1" parent="zkfFHV4jXpPFQw0GAbJ--26">
          <mxGeometry x="1" relative="1" as="geometry">
            <mxPoint x="622" y="470" as="offset" />
          </mxGeometry>
        </mxCell>
        <mxCell id="ATxBXpaf24UVZL9DsClH-23" style="edgeStyle=none;curved=1;rounded=0;orthogonalLoop=1;jettySize=auto;html=1;entryX=1;entryY=0;entryDx=0;entryDy=0;fontSize=12;startSize=8;endSize=8;exitX=0;exitY=1;exitDx=0;exitDy=0;" edge="1" parent="WIyWlLk6GJQsqaUBKTNV-1" source="ATxBXpaf24UVZL9DsClH-2" target="zkfFHV4jXpPFQw0GAbJ--6">
          <mxGeometry relative="1" as="geometry">
            <Array as="points">
              <mxPoint x="470" y="450" />
            </Array>
          </mxGeometry>
        </mxCell>
        <mxCell id="ATxBXpaf24UVZL9DsClH-24" value="Can have" style="edgeLabel;html=1;align=center;verticalAlign=middle;resizable=0;points=[];fontSize=12;" vertex="1" connectable="0" parent="ATxBXpaf24UVZL9DsClH-23">
          <mxGeometry x="0.0011" y="-10" relative="1" as="geometry">
            <mxPoint x="-21" y="-20" as="offset" />
          </mxGeometry>
        </mxCell>
        <mxCell id="ATxBXpaf24UVZL9DsClH-79" value="Can have" style="edgeLabel;html=1;align=center;verticalAlign=middle;resizable=0;points=[];fontSize=12;" vertex="1" connectable="0" parent="ATxBXpaf24UVZL9DsClH-23">
          <mxGeometry x="0.0011" y="-10" relative="1" as="geometry">
            <mxPoint x="449" y="-20" as="offset" />
          </mxGeometry>
        </mxCell>
        <mxCell id="ATxBXpaf24UVZL9DsClH-90" value="Can have" style="edgeLabel;html=1;align=center;verticalAlign=middle;resizable=0;points=[];fontSize=12;" vertex="1" connectable="0" parent="ATxBXpaf24UVZL9DsClH-23">
          <mxGeometry x="0.0011" y="-10" relative="1" as="geometry">
            <mxPoint x="449" y="220" as="offset" />
          </mxGeometry>
        </mxCell>
        <mxCell id="ATxBXpaf24UVZL9DsClH-2" value="Graduate Course" style="swimlane;fontStyle=0;align=center;verticalAlign=top;childLayout=stackLayout;horizontal=1;startSize=26;horizontalStack=0;resizeParent=1;resizeLast=0;collapsible=1;marginBottom=0;rounded=0;shadow=0;strokeWidth=1;" vertex="1" parent="WIyWlLk6GJQsqaUBKTNV-1">
          <mxGeometry x="508" y="240" width="160" height="110" as="geometry">
            <mxRectangle x="550" y="140" width="160" height="26" as="alternateBounds" />
          </mxGeometry>
        </mxCell>
        <mxCell id="ATxBXpaf24UVZL9DsClH-3" value="[Attributes]" style="text;align=left;verticalAlign=top;spacingLeft=4;spacingRight=4;overflow=hidden;rotatable=0;points=[[0,0.5],[1,0.5]];portConstraint=eastwest;" vertex="1" parent="ATxBXpaf24UVZL9DsClH-2">
          <mxGeometry y="26" width="160" height="26" as="geometry" />
        </mxCell>
        <mxCell id="ATxBXpaf24UVZL9DsClH-4" value="" style="line;html=1;strokeWidth=1;align=left;verticalAlign=middle;spacingTop=-1;spacingLeft=3;spacingRight=3;rotatable=0;labelPosition=right;points=[];portConstraint=eastwest;" vertex="1" parent="ATxBXpaf24UVZL9DsClH-2">
          <mxGeometry y="52" width="160" height="8" as="geometry" />
        </mxCell>
        <mxCell id="ATxBXpaf24UVZL9DsClH-6" style="edgeStyle=none;curved=1;rounded=0;orthogonalLoop=1;jettySize=auto;html=1;fontSize=12;startSize=8;endSize=8;entryX=0.431;entryY=0.02;entryDx=0;entryDy=0;entryPerimeter=0;" edge="1" parent="WIyWlLk6GJQsqaUBKTNV-1" source="ATxBXpaf24UVZL9DsClH-2" target="zkfFHV4jXpPFQw0GAbJ--13">
          <mxGeometry relative="1" as="geometry">
            <mxPoint x="589" y="380" as="targetPoint" />
          </mxGeometry>
        </mxCell>
        <mxCell id="ATxBXpaf24UVZL9DsClH-7" value="Is taught by" style="edgeLabel;html=1;align=center;verticalAlign=middle;resizable=0;points=[];fontSize=12;" vertex="1" connectable="0" parent="ATxBXpaf24UVZL9DsClH-6">
          <mxGeometry x="0.0283" y="2" relative="1" as="geometry">
            <mxPoint x="39" as="offset" />
          </mxGeometry>
        </mxCell>
        <mxCell id="ATxBXpaf24UVZL9DsClH-18" value="Can enroll to" style="edgeLabel;html=1;align=center;verticalAlign=middle;resizable=0;points=[];fontSize=12;" vertex="1" connectable="0" parent="ATxBXpaf24UVZL9DsClH-6">
          <mxGeometry x="0.0283" y="2" relative="1" as="geometry">
            <mxPoint x="-271" y="-72" as="offset" />
          </mxGeometry>
        </mxCell>
        <mxCell id="ATxBXpaf24UVZL9DsClH-31" value="Can create" style="edgeLabel;html=1;align=center;verticalAlign=middle;resizable=0;points=[];fontSize=12;" vertex="1" connectable="0" parent="ATxBXpaf24UVZL9DsClH-6">
          <mxGeometry x="0.0283" y="2" relative="1" as="geometry">
            <mxPoint x="39" y="198" as="offset" />
          </mxGeometry>
        </mxCell>
        <mxCell id="ATxBXpaf24UVZL9DsClH-41" value="Can access" style="edgeLabel;html=1;align=center;verticalAlign=middle;resizable=0;points=[];fontSize=12;" vertex="1" connectable="0" parent="ATxBXpaf24UVZL9DsClH-6">
          <mxGeometry x="0.0283" y="2" relative="1" as="geometry">
            <mxPoint x="-421" y="168" as="offset" />
          </mxGeometry>
        </mxCell>
        <mxCell id="ATxBXpaf24UVZL9DsClH-46" value="Can Have" style="edgeLabel;html=1;align=center;verticalAlign=middle;resizable=0;points=[];fontSize=12;" vertex="1" connectable="0" parent="ATxBXpaf24UVZL9DsClH-6">
          <mxGeometry x="0.0283" y="2" relative="1" as="geometry">
            <mxPoint x="-331" y="187" as="offset" />
          </mxGeometry>
        </mxCell>
        <mxCell id="ATxBXpaf24UVZL9DsClH-54" value="Can create" style="edgeLabel;html=1;align=center;verticalAlign=middle;resizable=0;points=[];fontSize=12;" vertex="1" connectable="0" parent="ATxBXpaf24UVZL9DsClH-6">
          <mxGeometry x="0.0283" y="2" relative="1" as="geometry">
            <mxPoint x="109" y="288" as="offset" />
          </mxGeometry>
        </mxCell>
        <mxCell id="ATxBXpaf24UVZL9DsClH-83" value="Can enroll to" style="edgeLabel;html=1;align=center;verticalAlign=middle;resizable=0;points=[];fontSize=12;" vertex="1" connectable="0" parent="ATxBXpaf24UVZL9DsClH-6">
          <mxGeometry x="0.0283" y="2" relative="1" as="geometry">
            <mxPoint x="219" y="-2" as="offset" />
          </mxGeometry>
        </mxCell>
        <mxCell id="ATxBXpaf24UVZL9DsClH-19" value="n,1" style="resizable=0;align=right;verticalAlign=bottom;labelBackgroundColor=none;fontSize=12;" connectable="0" vertex="1" parent="WIyWlLk6GJQsqaUBKTNV-1">
          <mxGeometry x="910" y="470" as="geometry">
            <mxPoint x="-101" y="38" as="offset" />
          </mxGeometry>
        </mxCell>
        <mxCell id="ATxBXpaf24UVZL9DsClH-20" value="n,1" style="resizable=0;align=right;verticalAlign=bottom;labelBackgroundColor=none;fontSize=12;" connectable="0" vertex="1" parent="WIyWlLk6GJQsqaUBKTNV-1">
          <mxGeometry x="600" y="252" as="geometry">
            <mxPoint x="-101" y="38" as="offset" />
          </mxGeometry>
        </mxCell>
        <mxCell id="ATxBXpaf24UVZL9DsClH-25" value="n,1" style="resizable=0;align=right;verticalAlign=bottom;labelBackgroundColor=none;fontSize=12;" connectable="0" vertex="1" parent="WIyWlLk6GJQsqaUBKTNV-1">
          <mxGeometry x="606.91" y="325" as="geometry">
            <mxPoint x="-101" y="38" as="offset" />
          </mxGeometry>
        </mxCell>
        <mxCell id="ATxBXpaf24UVZL9DsClH-26" value="n,1" style="resizable=0;align=right;verticalAlign=bottom;labelBackgroundColor=none;fontSize=12;" connectable="0" vertex="1" parent="WIyWlLk6GJQsqaUBKTNV-1">
          <mxGeometry x="550" y="430" as="geometry">
            <mxPoint x="-101" y="38" as="offset" />
          </mxGeometry>
        </mxCell>
        <mxCell id="ATxBXpaf24UVZL9DsClH-27" value="Quiz" style="swimlane;fontStyle=0;align=center;verticalAlign=top;childLayout=stackLayout;horizontal=1;startSize=26;horizontalStack=0;resizeParent=1;resizeLast=0;collapsible=1;marginBottom=0;rounded=0;shadow=0;strokeWidth=1;" vertex="1" parent="WIyWlLk6GJQsqaUBKTNV-1">
          <mxGeometry x="414" y="640" width="160" height="100" as="geometry">
            <mxRectangle x="340" y="380" width="170" height="26" as="alternateBounds" />
          </mxGeometry>
        </mxCell>
        <mxCell id="ATxBXpaf24UVZL9DsClH-28" value="[Attributes]" style="text;align=left;verticalAlign=top;spacingLeft=4;spacingRight=4;overflow=hidden;rotatable=0;points=[[0,0.5],[1,0.5]];portConstraint=eastwest;" vertex="1" parent="ATxBXpaf24UVZL9DsClH-27">
          <mxGeometry y="26" width="160" height="26" as="geometry" />
        </mxCell>
        <mxCell id="ATxBXpaf24UVZL9DsClH-29" value="" style="line;html=1;strokeWidth=1;align=left;verticalAlign=middle;spacingTop=-1;spacingLeft=3;spacingRight=3;rotatable=0;labelPosition=right;points=[];portConstraint=eastwest;" vertex="1" parent="ATxBXpaf24UVZL9DsClH-27">
          <mxGeometry y="52" width="160" height="8" as="geometry" />
        </mxCell>
        <mxCell id="ATxBXpaf24UVZL9DsClH-43" style="edgeStyle=none;curved=1;rounded=0;orthogonalLoop=1;jettySize=auto;html=1;entryX=0.25;entryY=1;entryDx=0;entryDy=0;fontSize=12;startSize=8;endSize=8;" edge="1" parent="WIyWlLk6GJQsqaUBKTNV-1" source="ATxBXpaf24UVZL9DsClH-37" target="zkfFHV4jXpPFQw0GAbJ--6">
          <mxGeometry relative="1" as="geometry">
            <Array as="points">
              <mxPoint x="300" y="600" />
            </Array>
          </mxGeometry>
        </mxCell>
        <mxCell id="ATxBXpaf24UVZL9DsClH-37" value="Classroom" style="swimlane;fontStyle=0;align=center;verticalAlign=top;childLayout=stackLayout;horizontal=1;startSize=26;horizontalStack=0;resizeParent=1;resizeLast=0;collapsible=1;marginBottom=0;rounded=0;shadow=0;strokeWidth=1;" vertex="1" parent="WIyWlLk6GJQsqaUBKTNV-1">
          <mxGeometry x="130" y="640" width="160" height="100" as="geometry">
            <mxRectangle x="340" y="380" width="170" height="26" as="alternateBounds" />
          </mxGeometry>
        </mxCell>
        <mxCell id="ATxBXpaf24UVZL9DsClH-38" value="[Attributes]" style="text;align=left;verticalAlign=top;spacingLeft=4;spacingRight=4;overflow=hidden;rotatable=0;points=[[0,0.5],[1,0.5]];portConstraint=eastwest;" vertex="1" parent="ATxBXpaf24UVZL9DsClH-37">
          <mxGeometry y="26" width="160" height="26" as="geometry" />
        </mxCell>
        <mxCell id="ATxBXpaf24UVZL9DsClH-39" value="" style="line;html=1;strokeWidth=1;align=left;verticalAlign=middle;spacingTop=-1;spacingLeft=3;spacingRight=3;rotatable=0;labelPosition=right;points=[];portConstraint=eastwest;" vertex="1" parent="ATxBXpaf24UVZL9DsClH-37">
          <mxGeometry y="52" width="160" height="8" as="geometry" />
        </mxCell>
        <mxCell id="ATxBXpaf24UVZL9DsClH-40" style="edgeStyle=none;curved=1;rounded=0;orthogonalLoop=1;jettySize=auto;html=1;entryX=0.456;entryY=0;entryDx=0;entryDy=0;entryPerimeter=0;fontSize=12;startSize=8;endSize=8;" edge="1" parent="WIyWlLk6GJQsqaUBKTNV-1" source="zkfFHV4jXpPFQw0GAbJ--6" target="ATxBXpaf24UVZL9DsClH-37">
          <mxGeometry relative="1" as="geometry">
            <Array as="points">
              <mxPoint x="190" y="550" />
            </Array>
          </mxGeometry>
        </mxCell>
        <mxCell id="ATxBXpaf24UVZL9DsClH-48" style="edgeStyle=none;curved=1;rounded=0;orthogonalLoop=1;jettySize=auto;html=1;entryX=0.007;entryY=0.375;entryDx=0;entryDy=0;fontSize=12;startSize=8;endSize=8;exitX=0;exitY=0.5;exitDx=0;exitDy=0;entryPerimeter=0;" edge="1" target="ATxBXpaf24UVZL9DsClH-57" parent="WIyWlLk6GJQsqaUBKTNV-1" source="zkfFHV4jXpPFQw0GAbJ--7">
          <mxGeometry relative="1" as="geometry">
            <mxPoint x="379.91" y="720" as="sourcePoint" />
            <Array as="points">
              <mxPoint x="-10" y="560" />
              <mxPoint x="80" y="880" />
              <mxPoint x="350" y="910" />
            </Array>
          </mxGeometry>
        </mxCell>
        <mxCell id="ATxBXpaf24UVZL9DsClH-58" value="Can do" style="edgeLabel;html=1;align=center;verticalAlign=middle;resizable=0;points=[];fontSize=12;" vertex="1" connectable="0" parent="ATxBXpaf24UVZL9DsClH-48">
          <mxGeometry x="0.0459" y="5" relative="1" as="geometry">
            <mxPoint x="21" y="-18" as="offset" />
          </mxGeometry>
        </mxCell>
        <mxCell id="ATxBXpaf24UVZL9DsClH-49" style="edgeStyle=none;curved=1;rounded=0;orthogonalLoop=1;jettySize=auto;html=1;entryX=1;entryY=0;entryDx=0;entryDy=0;fontSize=12;startSize=8;endSize=8;" edge="1" target="ATxBXpaf24UVZL9DsClH-55" parent="WIyWlLk6GJQsqaUBKTNV-1">
          <mxGeometry relative="1" as="geometry">
            <mxPoint x="680" y="540" as="sourcePoint" />
            <Array as="points">
              <mxPoint x="680" y="660" />
              <mxPoint x="630.91" y="770" />
            </Array>
          </mxGeometry>
        </mxCell>
        <mxCell id="ATxBXpaf24UVZL9DsClH-55" value="Exam" style="swimlane;fontStyle=0;align=center;verticalAlign=top;childLayout=stackLayout;horizontal=1;startSize=26;horizontalStack=0;resizeParent=1;resizeLast=0;collapsible=1;marginBottom=0;rounded=0;shadow=0;strokeWidth=1;" vertex="1" parent="WIyWlLk6GJQsqaUBKTNV-1">
          <mxGeometry x="444.91" y="810" width="160" height="100" as="geometry">
            <mxRectangle x="340" y="380" width="170" height="26" as="alternateBounds" />
          </mxGeometry>
        </mxCell>
        <mxCell id="ATxBXpaf24UVZL9DsClH-56" value="[Attributes]" style="text;align=left;verticalAlign=top;spacingLeft=4;spacingRight=4;overflow=hidden;rotatable=0;points=[[0,0.5],[1,0.5]];portConstraint=eastwest;" vertex="1" parent="ATxBXpaf24UVZL9DsClH-55">
          <mxGeometry y="26" width="160" height="26" as="geometry" />
        </mxCell>
        <mxCell id="ATxBXpaf24UVZL9DsClH-57" value="" style="line;html=1;strokeWidth=1;align=left;verticalAlign=middle;spacingTop=-1;spacingLeft=3;spacingRight=3;rotatable=0;labelPosition=right;points=[];portConstraint=eastwest;" vertex="1" parent="ATxBXpaf24UVZL9DsClH-55">
          <mxGeometry y="52" width="160" height="8" as="geometry" />
        </mxCell>
        <mxCell id="ATxBXpaf24UVZL9DsClH-59" value="Department Head" style="swimlane;fontStyle=0;align=center;verticalAlign=top;childLayout=stackLayout;horizontal=1;startSize=26;horizontalStack=0;resizeParent=1;resizeLast=0;collapsible=1;marginBottom=0;rounded=0;shadow=0;strokeWidth=1;" vertex="1" parent="WIyWlLk6GJQsqaUBKTNV-1">
          <mxGeometry x="810" y="60" width="160" height="100" as="geometry">
            <mxRectangle x="550" y="140" width="160" height="26" as="alternateBounds" />
          </mxGeometry>
        </mxCell>
        <mxCell id="ATxBXpaf24UVZL9DsClH-60" value="[Attributes]" style="text;align=left;verticalAlign=top;spacingLeft=4;spacingRight=4;overflow=hidden;rotatable=0;points=[[0,0.5],[1,0.5]];portConstraint=eastwest;" vertex="1" parent="ATxBXpaf24UVZL9DsClH-59">
          <mxGeometry y="26" width="160" height="26" as="geometry" />
        </mxCell>
        <mxCell id="ATxBXpaf24UVZL9DsClH-61" value="" style="line;html=1;strokeWidth=1;align=left;verticalAlign=middle;spacingTop=-1;spacingLeft=3;spacingRight=3;rotatable=0;labelPosition=right;points=[];portConstraint=eastwest;" vertex="1" parent="ATxBXpaf24UVZL9DsClH-59">
          <mxGeometry y="52" width="160" height="8" as="geometry" />
        </mxCell>
        <mxCell id="ATxBXpaf24UVZL9DsClH-62" style="edgeStyle=none;curved=1;rounded=0;orthogonalLoop=1;jettySize=auto;html=1;entryX=0;entryY=0.5;entryDx=0;entryDy=0;fontSize=12;startSize=8;endSize=8;" edge="1" parent="WIyWlLk6GJQsqaUBKTNV-1" source="zkfFHV4jXpPFQw0GAbJ--18" target="ATxBXpaf24UVZL9DsClH-60">
          <mxGeometry relative="1" as="geometry" />
        </mxCell>
        <mxCell id="ATxBXpaf24UVZL9DsClH-63" value="Has a" style="edgeLabel;html=1;align=center;verticalAlign=middle;resizable=0;points=[];fontSize=12;" vertex="1" connectable="0" parent="ATxBXpaf24UVZL9DsClH-62">
          <mxGeometry x="-0.0262" y="-1" relative="1" as="geometry">
            <mxPoint x="1" y="-11" as="offset" />
          </mxGeometry>
        </mxCell>
        <mxCell id="ATxBXpaf24UVZL9DsClH-64" value="1" style="edgeLabel;html=1;align=center;verticalAlign=middle;resizable=0;points=[];fontSize=12;" vertex="1" connectable="0" parent="ATxBXpaf24UVZL9DsClH-62">
          <mxGeometry x="-0.6499" y="-2" relative="1" as="geometry">
            <mxPoint x="-17" y="-11" as="offset" />
          </mxGeometry>
        </mxCell>
        <mxCell id="ATxBXpaf24UVZL9DsClH-65" value="1" style="edgeLabel;html=1;align=center;verticalAlign=middle;resizable=0;points=[];fontSize=12;" vertex="1" connectable="0" parent="ATxBXpaf24UVZL9DsClH-62">
          <mxGeometry x="-0.6499" y="-2" relative="1" as="geometry">
            <mxPoint x="100" y="-9" as="offset" />
          </mxGeometry>
        </mxCell>
        <mxCell id="ATxBXpaf24UVZL9DsClH-70" value="1" style="edgeLabel;html=1;align=center;verticalAlign=middle;resizable=0;points=[];fontSize=12;" vertex="1" connectable="0" parent="ATxBXpaf24UVZL9DsClH-62">
          <mxGeometry x="-0.6499" y="-2" relative="1" as="geometry">
            <mxPoint x="-19" y="40" as="offset" />
          </mxGeometry>
        </mxCell>
        <mxCell id="ATxBXpaf24UVZL9DsClH-71" value="n" style="edgeLabel;html=1;align=center;verticalAlign=middle;resizable=0;points=[];fontSize=12;" vertex="1" connectable="0" parent="ATxBXpaf24UVZL9DsClH-62">
          <mxGeometry x="-0.6499" y="-2" relative="1" as="geometry">
            <mxPoint x="109" y="121" as="offset" />
          </mxGeometry>
        </mxCell>
        <mxCell id="ATxBXpaf24UVZL9DsClH-118" value="1" style="edgeLabel;html=1;align=center;verticalAlign=middle;resizable=0;points=[];fontSize=12;" vertex="1" connectable="0" parent="ATxBXpaf24UVZL9DsClH-62">
          <mxGeometry x="-0.6499" y="-2" relative="1" as="geometry">
            <mxPoint x="400" y="-51" as="offset" />
          </mxGeometry>
        </mxCell>
        <mxCell id="ATxBXpaf24UVZL9DsClH-132" value="1" style="edgeLabel;html=1;align=center;verticalAlign=middle;resizable=0;points=[];fontSize=12;" vertex="1" connectable="0" parent="ATxBXpaf24UVZL9DsClH-62">
          <mxGeometry x="-0.6499" y="-2" relative="1" as="geometry">
            <mxPoint x="295" y="-159" as="offset" />
          </mxGeometry>
        </mxCell>
        <mxCell id="ATxBXpaf24UVZL9DsClH-78" style="edgeStyle=none;curved=1;rounded=0;orthogonalLoop=1;jettySize=auto;html=1;entryX=0.5;entryY=0;entryDx=0;entryDy=0;fontSize=12;startSize=8;endSize=8;" edge="1" parent="WIyWlLk6GJQsqaUBKTNV-1" source="ATxBXpaf24UVZL9DsClH-66" target="ATxBXpaf24UVZL9DsClH-72">
          <mxGeometry relative="1" as="geometry" />
        </mxCell>
        <mxCell id="ATxBXpaf24UVZL9DsClH-66" value="Undergraduate Course" style="swimlane;fontStyle=0;align=center;verticalAlign=top;childLayout=stackLayout;horizontal=1;startSize=26;horizontalStack=0;resizeParent=1;resizeLast=0;collapsible=1;marginBottom=0;rounded=0;shadow=0;strokeWidth=1;" vertex="1" parent="WIyWlLk6GJQsqaUBKTNV-1">
          <mxGeometry x="810" y="240" width="160" height="110" as="geometry">
            <mxRectangle x="550" y="140" width="160" height="26" as="alternateBounds" />
          </mxGeometry>
        </mxCell>
        <mxCell id="ATxBXpaf24UVZL9DsClH-67" value="[Attributes]" style="text;align=left;verticalAlign=top;spacingLeft=4;spacingRight=4;overflow=hidden;rotatable=0;points=[[0,0.5],[1,0.5]];portConstraint=eastwest;" vertex="1" parent="ATxBXpaf24UVZL9DsClH-66">
          <mxGeometry y="26" width="160" height="26" as="geometry" />
        </mxCell>
        <mxCell id="ATxBXpaf24UVZL9DsClH-68" value="" style="line;html=1;strokeWidth=1;align=left;verticalAlign=middle;spacingTop=-1;spacingLeft=3;spacingRight=3;rotatable=0;labelPosition=right;points=[];portConstraint=eastwest;" vertex="1" parent="ATxBXpaf24UVZL9DsClH-66">
          <mxGeometry y="52" width="160" height="8" as="geometry" />
        </mxCell>
        <mxCell id="ATxBXpaf24UVZL9DsClH-82" style="edgeStyle=none;curved=1;rounded=0;orthogonalLoop=1;jettySize=auto;html=1;fontSize=12;startSize=8;endSize=8;exitX=0;exitY=0.5;exitDx=0;exitDy=0;" edge="1" parent="WIyWlLk6GJQsqaUBKTNV-1" source="ATxBXpaf24UVZL9DsClH-73">
          <mxGeometry relative="1" as="geometry">
            <mxPoint x="780" y="486.5" as="sourcePoint" />
            <mxPoint x="810" y="310" as="targetPoint" />
            <Array as="points">
              <mxPoint x="740" y="410" />
            </Array>
          </mxGeometry>
        </mxCell>
        <mxCell id="ATxBXpaf24UVZL9DsClH-89" style="edgeStyle=none;curved=1;rounded=0;orthogonalLoop=1;jettySize=auto;html=1;entryX=0.5;entryY=0;entryDx=0;entryDy=0;fontSize=12;startSize=8;endSize=8;" edge="1" parent="WIyWlLk6GJQsqaUBKTNV-1" source="ATxBXpaf24UVZL9DsClH-72" target="ATxBXpaf24UVZL9DsClH-86">
          <mxGeometry relative="1" as="geometry" />
        </mxCell>
        <mxCell id="ATxBXpaf24UVZL9DsClH-72" value="Undegraduate Student" style="swimlane;fontStyle=0;align=center;verticalAlign=top;childLayout=stackLayout;horizontal=1;startSize=26;horizontalStack=0;resizeParent=1;resizeLast=0;collapsible=1;marginBottom=0;rounded=0;shadow=0;strokeWidth=1;" vertex="1" parent="WIyWlLk6GJQsqaUBKTNV-1">
          <mxGeometry x="810" y="450" width="160" height="100" as="geometry">
            <mxRectangle x="130" y="380" width="160" height="26" as="alternateBounds" />
          </mxGeometry>
        </mxCell>
        <mxCell id="ATxBXpaf24UVZL9DsClH-73" value="[Attributes]" style="text;align=left;verticalAlign=top;spacingLeft=4;spacingRight=4;overflow=hidden;rotatable=0;points=[[0,0.5],[1,0.5]];portConstraint=eastwest;" vertex="1" parent="ATxBXpaf24UVZL9DsClH-72">
          <mxGeometry y="26" width="160" height="26" as="geometry" />
        </mxCell>
        <mxCell id="ATxBXpaf24UVZL9DsClH-74" value="" style="line;html=1;strokeWidth=1;align=left;verticalAlign=middle;spacingTop=-1;spacingLeft=3;spacingRight=3;rotatable=0;labelPosition=right;points=[];portConstraint=eastwest;" vertex="1" parent="ATxBXpaf24UVZL9DsClH-72">
          <mxGeometry y="52" width="160" height="8" as="geometry" />
        </mxCell>
        <mxCell id="ATxBXpaf24UVZL9DsClH-80" value="n,1" style="resizable=0;align=right;verticalAlign=bottom;labelBackgroundColor=none;fontSize=12;" connectable="0" vertex="1" parent="WIyWlLk6GJQsqaUBKTNV-1">
          <mxGeometry x="1012" y="329" as="geometry">
            <mxPoint x="-101" y="38" as="offset" />
          </mxGeometry>
        </mxCell>
        <mxCell id="ATxBXpaf24UVZL9DsClH-81" value="n,1" style="resizable=0;align=right;verticalAlign=bottom;labelBackgroundColor=none;fontSize=12;" connectable="0" vertex="1" parent="WIyWlLk6GJQsqaUBKTNV-1">
          <mxGeometry x="1016" y="410" as="geometry">
            <mxPoint x="-101" y="38" as="offset" />
          </mxGeometry>
        </mxCell>
        <mxCell id="ATxBXpaf24UVZL9DsClH-85" value="n,1" style="resizable=0;align=right;verticalAlign=bottom;labelBackgroundColor=none;fontSize=12;" connectable="0" vertex="1" parent="WIyWlLk6GJQsqaUBKTNV-1">
          <mxGeometry x="900" y="280" as="geometry">
            <mxPoint x="-101" y="38" as="offset" />
          </mxGeometry>
        </mxCell>
        <mxCell id="ATxBXpaf24UVZL9DsClH-86" value="Degree" style="swimlane;fontStyle=0;align=center;verticalAlign=top;childLayout=stackLayout;horizontal=1;startSize=26;horizontalStack=0;resizeParent=1;resizeLast=0;collapsible=1;marginBottom=0;rounded=0;shadow=0;strokeWidth=1;" vertex="1" parent="WIyWlLk6GJQsqaUBKTNV-1">
          <mxGeometry x="810" y="730" width="160" height="100" as="geometry">
            <mxRectangle x="130" y="380" width="160" height="26" as="alternateBounds" />
          </mxGeometry>
        </mxCell>
        <mxCell id="ATxBXpaf24UVZL9DsClH-87" value="[Attributes]" style="text;align=left;verticalAlign=top;spacingLeft=4;spacingRight=4;overflow=hidden;rotatable=0;points=[[0,0.5],[1,0.5]];portConstraint=eastwest;" vertex="1" parent="ATxBXpaf24UVZL9DsClH-86">
          <mxGeometry y="26" width="160" height="26" as="geometry" />
        </mxCell>
        <mxCell id="ATxBXpaf24UVZL9DsClH-88" value="" style="line;html=1;strokeWidth=1;align=left;verticalAlign=middle;spacingTop=-1;spacingLeft=3;spacingRight=3;rotatable=0;labelPosition=right;points=[];portConstraint=eastwest;" vertex="1" parent="ATxBXpaf24UVZL9DsClH-86">
          <mxGeometry y="52" width="160" height="8" as="geometry" />
        </mxCell>
        <mxCell id="ATxBXpaf24UVZL9DsClH-91" value="n" style="resizable=0;align=right;verticalAlign=bottom;labelBackgroundColor=none;fontSize=12;" connectable="0" vertex="1" parent="WIyWlLk6GJQsqaUBKTNV-1">
          <mxGeometry x="1007" y="533" as="geometry">
            <mxPoint x="-101" y="38" as="offset" />
          </mxGeometry>
        </mxCell>
        <mxCell id="ATxBXpaf24UVZL9DsClH-92" value="1" style="resizable=0;align=right;verticalAlign=bottom;labelBackgroundColor=none;fontSize=12;" connectable="0" vertex="1" parent="WIyWlLk6GJQsqaUBKTNV-1">
          <mxGeometry x="1004" y="680" as="geometry">
            <mxPoint x="-101" y="38" as="offset" />
          </mxGeometry>
        </mxCell>
        <mxCell id="ATxBXpaf24UVZL9DsClH-101" value="Building" style="swimlane;fontStyle=2;align=center;verticalAlign=top;childLayout=stackLayout;horizontal=1;startSize=26;horizontalStack=0;resizeParent=1;resizeLast=0;collapsible=1;marginBottom=0;rounded=0;shadow=0;strokeWidth=1;" vertex="1" parent="WIyWlLk6GJQsqaUBKTNV-1">
          <mxGeometry x="-170" y="60" width="160" height="100" as="geometry">
            <mxRectangle x="230" y="140" width="160" height="26" as="alternateBounds" />
          </mxGeometry>
        </mxCell>
        <mxCell id="ATxBXpaf24UVZL9DsClH-102" value="[Attributes]" style="text;align=left;verticalAlign=top;spacingLeft=4;spacingRight=4;overflow=hidden;rotatable=0;points=[[0,0.5],[1,0.5]];portConstraint=eastwest;" vertex="1" parent="ATxBXpaf24UVZL9DsClH-101">
          <mxGeometry y="26" width="160" height="26" as="geometry" />
        </mxCell>
        <mxCell id="ATxBXpaf24UVZL9DsClH-103" value="" style="line;html=1;strokeWidth=1;align=left;verticalAlign=middle;spacingTop=-1;spacingLeft=3;spacingRight=3;rotatable=0;labelPosition=right;points=[];portConstraint=eastwest;" vertex="1" parent="ATxBXpaf24UVZL9DsClH-101">
          <mxGeometry y="52" width="160" height="8" as="geometry" />
        </mxCell>
        <mxCell id="ATxBXpaf24UVZL9DsClH-104" style="edgeStyle=none;curved=1;rounded=0;orthogonalLoop=1;jettySize=auto;html=1;entryX=1;entryY=0.5;entryDx=0;entryDy=0;fontSize=12;startSize=8;endSize=8;" edge="1" parent="WIyWlLk6GJQsqaUBKTNV-1" source="zkfFHV4jXpPFQw0GAbJ--1" target="ATxBXpaf24UVZL9DsClH-102">
          <mxGeometry relative="1" as="geometry" />
        </mxCell>
        <mxCell id="ATxBXpaf24UVZL9DsClH-105" value="n,0" style="edgeLabel;html=1;align=center;verticalAlign=middle;resizable=0;points=[];fontSize=12;" vertex="1" connectable="0" parent="ATxBXpaf24UVZL9DsClH-104">
          <mxGeometry x="-0.5801" y="-4" relative="1" as="geometry">
            <mxPoint x="33" y="-5" as="offset" />
          </mxGeometry>
        </mxCell>
        <mxCell id="ATxBXpaf24UVZL9DsClH-106" value="n,0" style="edgeLabel;html=1;align=center;verticalAlign=middle;resizable=0;points=[];fontSize=12;" vertex="1" connectable="0" parent="ATxBXpaf24UVZL9DsClH-104">
          <mxGeometry x="-0.5801" y="-4" relative="1" as="geometry">
            <mxPoint x="-164" y="-6" as="offset" />
          </mxGeometry>
        </mxCell>
        <mxCell id="ATxBXpaf24UVZL9DsClH-107" value="can be a" style="edgeLabel;html=1;align=center;verticalAlign=middle;resizable=0;points=[];fontSize=12;" vertex="1" connectable="0" parent="ATxBXpaf24UVZL9DsClH-104">
          <mxGeometry x="0.0161" y="2" relative="1" as="geometry">
            <mxPoint y="-13" as="offset" />
          </mxGeometry>
        </mxCell>
        <mxCell id="ATxBXpaf24UVZL9DsClH-108" value="Teaching assistant" style="swimlane;fontStyle=0;align=center;verticalAlign=top;childLayout=stackLayout;horizontal=1;startSize=26;horizontalStack=0;resizeParent=1;resizeLast=0;collapsible=1;marginBottom=0;rounded=0;shadow=0;strokeWidth=1;" vertex="1" parent="WIyWlLk6GJQsqaUBKTNV-1">
          <mxGeometry x="1070" y="450" width="160" height="100" as="geometry">
            <mxRectangle x="340" y="380" width="170" height="26" as="alternateBounds" />
          </mxGeometry>
        </mxCell>
        <mxCell id="ATxBXpaf24UVZL9DsClH-109" value="[Attributes]" style="text;align=left;verticalAlign=top;spacingLeft=4;spacingRight=4;overflow=hidden;rotatable=0;points=[[0,0.5],[1,0.5]];portConstraint=eastwest;" vertex="1" parent="ATxBXpaf24UVZL9DsClH-108">
          <mxGeometry y="26" width="160" height="26" as="geometry" />
        </mxCell>
        <mxCell id="ATxBXpaf24UVZL9DsClH-110" value="" style="line;html=1;strokeWidth=1;align=left;verticalAlign=middle;spacingTop=-1;spacingLeft=3;spacingRight=3;rotatable=0;labelPosition=right;points=[];portConstraint=eastwest;" vertex="1" parent="ATxBXpaf24UVZL9DsClH-108">
          <mxGeometry y="52" width="160" height="8" as="geometry" />
        </mxCell>
        <mxCell id="ATxBXpaf24UVZL9DsClH-114" value="Dean" style="swimlane;fontStyle=0;align=center;verticalAlign=top;childLayout=stackLayout;horizontal=1;startSize=26;horizontalStack=0;resizeParent=1;resizeLast=0;collapsible=1;marginBottom=0;rounded=0;shadow=0;strokeWidth=1;" vertex="1" parent="WIyWlLk6GJQsqaUBKTNV-1">
          <mxGeometry x="1040" y="60" width="160" height="100" as="geometry">
            <mxRectangle x="550" y="140" width="160" height="26" as="alternateBounds" />
          </mxGeometry>
        </mxCell>
        <mxCell id="ATxBXpaf24UVZL9DsClH-115" value="[Attributes]" style="text;align=left;verticalAlign=top;spacingLeft=4;spacingRight=4;overflow=hidden;rotatable=0;points=[[0,0.5],[1,0.5]];portConstraint=eastwest;" vertex="1" parent="ATxBXpaf24UVZL9DsClH-114">
          <mxGeometry y="26" width="160" height="26" as="geometry" />
        </mxCell>
        <mxCell id="ATxBXpaf24UVZL9DsClH-116" value="" style="line;html=1;strokeWidth=1;align=left;verticalAlign=middle;spacingTop=-1;spacingLeft=3;spacingRight=3;rotatable=0;labelPosition=right;points=[];portConstraint=eastwest;" vertex="1" parent="ATxBXpaf24UVZL9DsClH-114">
          <mxGeometry y="52" width="160" height="8" as="geometry" />
        </mxCell>
        <mxCell id="ATxBXpaf24UVZL9DsClH-122" style="edgeStyle=none;curved=1;rounded=0;orthogonalLoop=1;jettySize=auto;html=1;entryX=0.75;entryY=0;entryDx=0;entryDy=0;fontSize=12;startSize=8;endSize=8;" edge="1" parent="WIyWlLk6GJQsqaUBKTNV-1" source="ATxBXpaf24UVZL9DsClH-119" target="zkfFHV4jXpPFQw0GAbJ--17">
          <mxGeometry relative="1" as="geometry">
            <Array as="points">
              <mxPoint x="680" y="-40" />
            </Array>
          </mxGeometry>
        </mxCell>
        <mxCell id="ATxBXpaf24UVZL9DsClH-123" value="has" style="edgeLabel;html=1;align=center;verticalAlign=middle;resizable=0;points=[];fontSize=12;" vertex="1" connectable="0" parent="ATxBXpaf24UVZL9DsClH-122">
          <mxGeometry x="-0.1705" y="18" relative="1" as="geometry">
            <mxPoint x="-10" y="-7" as="offset" />
          </mxGeometry>
        </mxCell>
        <mxCell id="ATxBXpaf24UVZL9DsClH-124" value="1" style="edgeLabel;html=1;align=center;verticalAlign=middle;resizable=0;points=[];fontSize=12;" vertex="1" connectable="0" parent="ATxBXpaf24UVZL9DsClH-122">
          <mxGeometry x="-0.1705" y="18" relative="1" as="geometry">
            <mxPoint x="90" y="-33" as="offset" />
          </mxGeometry>
        </mxCell>
        <mxCell id="ATxBXpaf24UVZL9DsClH-125" value="n" style="edgeLabel;html=1;align=center;verticalAlign=middle;resizable=0;points=[];fontSize=12;" vertex="1" connectable="0" parent="ATxBXpaf24UVZL9DsClH-122">
          <mxGeometry x="-0.1705" y="18" relative="1" as="geometry">
            <mxPoint x="-84" y="65" as="offset" />
          </mxGeometry>
        </mxCell>
        <mxCell id="ATxBXpaf24UVZL9DsClH-143" value="1" style="edgeLabel;html=1;align=center;verticalAlign=middle;resizable=0;points=[];fontSize=12;" vertex="1" connectable="0" parent="ATxBXpaf24UVZL9DsClH-122">
          <mxGeometry x="-0.1705" y="18" relative="1" as="geometry">
            <mxPoint x="117" y="-87" as="offset" />
          </mxGeometry>
        </mxCell>
        <mxCell id="ATxBXpaf24UVZL9DsClH-144" value="1" style="edgeLabel;html=1;align=center;verticalAlign=middle;resizable=0;points=[];fontSize=12;" vertex="1" connectable="0" parent="ATxBXpaf24UVZL9DsClH-122">
          <mxGeometry x="-0.1705" y="18" relative="1" as="geometry">
            <mxPoint x="-296" y="-197" as="offset" />
          </mxGeometry>
        </mxCell>
        <mxCell id="ATxBXpaf24UVZL9DsClH-119" value="Faculty" style="swimlane;fontStyle=0;align=center;verticalAlign=top;childLayout=stackLayout;horizontal=1;startSize=26;horizontalStack=0;resizeParent=1;resizeLast=0;collapsible=1;marginBottom=0;rounded=0;shadow=0;strokeWidth=1;" vertex="1" parent="WIyWlLk6GJQsqaUBKTNV-1">
          <mxGeometry x="810" y="-100" width="160" height="100" as="geometry">
            <mxRectangle x="550" y="140" width="160" height="26" as="alternateBounds" />
          </mxGeometry>
        </mxCell>
        <mxCell id="ATxBXpaf24UVZL9DsClH-120" value="[Attributes]" style="text;align=left;verticalAlign=top;spacingLeft=4;spacingRight=4;overflow=hidden;rotatable=0;points=[[0,0.5],[1,0.5]];portConstraint=eastwest;" vertex="1" parent="ATxBXpaf24UVZL9DsClH-119">
          <mxGeometry y="26" width="160" height="26" as="geometry" />
        </mxCell>
        <mxCell id="ATxBXpaf24UVZL9DsClH-121" value="" style="line;html=1;strokeWidth=1;align=left;verticalAlign=middle;spacingTop=-1;spacingLeft=3;spacingRight=3;rotatable=0;labelPosition=right;points=[];portConstraint=eastwest;" vertex="1" parent="ATxBXpaf24UVZL9DsClH-119">
          <mxGeometry y="52" width="160" height="8" as="geometry" />
        </mxCell>
        <mxCell id="ATxBXpaf24UVZL9DsClH-130" style="edgeStyle=none;curved=1;rounded=0;orthogonalLoop=1;jettySize=auto;html=1;entryX=1.007;entryY=0.804;entryDx=0;entryDy=0;entryPerimeter=0;fontSize=12;startSize=8;endSize=8;" edge="1" parent="WIyWlLk6GJQsqaUBKTNV-1" source="ATxBXpaf24UVZL9DsClH-114" target="ATxBXpaf24UVZL9DsClH-120">
          <mxGeometry relative="1" as="geometry">
            <Array as="points">
              <mxPoint x="1040" y="-30" />
            </Array>
          </mxGeometry>
        </mxCell>
        <mxCell id="ATxBXpaf24UVZL9DsClH-131" value="leads" style="edgeLabel;html=1;align=center;verticalAlign=middle;resizable=0;points=[];fontSize=12;" vertex="1" connectable="0" parent="ATxBXpaf24UVZL9DsClH-130">
          <mxGeometry x="-0.1367" y="5" relative="1" as="geometry">
            <mxPoint x="21" as="offset" />
          </mxGeometry>
        </mxCell>
        <mxCell id="ATxBXpaf24UVZL9DsClH-133" value="Committee" style="swimlane;fontStyle=2;align=center;verticalAlign=top;childLayout=stackLayout;horizontal=1;startSize=26;horizontalStack=0;resizeParent=1;resizeLast=0;collapsible=1;marginBottom=0;rounded=0;shadow=0;strokeWidth=1;" vertex="1" parent="WIyWlLk6GJQsqaUBKTNV-1">
          <mxGeometry x="240" y="-230" width="160" height="100" as="geometry">
            <mxRectangle x="230" y="140" width="160" height="26" as="alternateBounds" />
          </mxGeometry>
        </mxCell>
        <mxCell id="ATxBXpaf24UVZL9DsClH-134" value="[Attributes]" style="text;align=left;verticalAlign=top;spacingLeft=4;spacingRight=4;overflow=hidden;rotatable=0;points=[[0,0.5],[1,0.5]];portConstraint=eastwest;" vertex="1" parent="ATxBXpaf24UVZL9DsClH-133">
          <mxGeometry y="26" width="160" height="26" as="geometry" />
        </mxCell>
        <mxCell id="ATxBXpaf24UVZL9DsClH-135" value="" style="line;html=1;strokeWidth=1;align=left;verticalAlign=middle;spacingTop=-1;spacingLeft=3;spacingRight=3;rotatable=0;labelPosition=right;points=[];portConstraint=eastwest;" vertex="1" parent="ATxBXpaf24UVZL9DsClH-133">
          <mxGeometry y="52" width="160" height="8" as="geometry" />
        </mxCell>
        <mxCell id="ATxBXpaf24UVZL9DsClH-142" style="edgeStyle=none;curved=1;rounded=0;orthogonalLoop=1;jettySize=auto;html=1;entryX=0.993;entryY=0.16;entryDx=0;entryDy=0;entryPerimeter=0;fontSize=12;startSize=8;endSize=8;" edge="1" parent="WIyWlLk6GJQsqaUBKTNV-1" source="ATxBXpaf24UVZL9DsClH-119" target="ATxBXpaf24UVZL9DsClH-133">
          <mxGeometry relative="1" as="geometry">
            <Array as="points">
              <mxPoint x="680" y="-230" />
            </Array>
          </mxGeometry>
        </mxCell>
        <mxCell id="ATxBXpaf24UVZL9DsClH-146" value="School Catalog" style="swimlane;fontStyle=2;align=center;verticalAlign=top;childLayout=stackLayout;horizontal=1;startSize=26;horizontalStack=0;resizeParent=1;resizeLast=0;collapsible=1;marginBottom=0;rounded=0;shadow=0;strokeWidth=1;" vertex="1" parent="WIyWlLk6GJQsqaUBKTNV-1">
          <mxGeometry y="240" width="160" height="100" as="geometry">
            <mxRectangle x="230" y="140" width="160" height="26" as="alternateBounds" />
          </mxGeometry>
        </mxCell>
        <mxCell id="ATxBXpaf24UVZL9DsClH-147" value="[Attributes]" style="text;align=left;verticalAlign=top;spacingLeft=4;spacingRight=4;overflow=hidden;rotatable=0;points=[[0,0.5],[1,0.5]];portConstraint=eastwest;" vertex="1" parent="ATxBXpaf24UVZL9DsClH-146">
          <mxGeometry y="26" width="160" height="26" as="geometry" />
        </mxCell>
        <mxCell id="ATxBXpaf24UVZL9DsClH-148" value="" style="line;html=1;strokeWidth=1;align=left;verticalAlign=middle;spacingTop=-1;spacingLeft=3;spacingRight=3;rotatable=0;labelPosition=right;points=[];portConstraint=eastwest;" vertex="1" parent="ATxBXpaf24UVZL9DsClH-146">
          <mxGeometry y="52" width="160" height="8" as="geometry" />
        </mxCell>
      </root>
    </mxGraphModel>
  </diagram>
</mxfile>
